<?xml version="1.0" encoding="UTF-8"?>
<!DOCTYPE svg PUBLIC "-//W3C//DTD SVG 1.1//EN" "http://www.w3.org/Graphics/SVG/1.1/DTD/svg11.dtd">
<svg xmlns="http://www.w3.org/2000/svg" version="1.1" width="64px" height="64px" style="shape-rendering:geometricPrecision; text-rendering:geometricPrecision; image-rendering:optimizeQuality; fill-rule:evenodd; clip-rule:evenodd" xmlns:xlink="http://www.w3.org/1999/xlink">
<g><path style="opacity:0.745" fill="#000000" d="M 24.5,16.5 C 24.5,17.1667 24.8333,17.5 25.5,17.5C 33.1667,25.8333 41.1667,33.8333 49.5,41.5C 49.5,42.1667 49.8333,42.5 50.5,42.5C 53.1653,45.3347 55.6653,48.3347 58,51.5C 58.8542,53.6073 58.1875,54.9407 56,55.5C 52.38,52.8832 49.0467,49.8832 46,46.5C 36.6129,51.6202 27.1129,51.7868 17.5,47C 12.3788,43.5473 7.5455,39.7139 3,35.5C 1.28535,30.4327 2.78535,26.2661 7.5,23C 10.328,20.7519 13.328,18.7519 16.5,17C 13.6667,14.1667 10.8333,11.3333 8,8.5C 7.91101,4.29003 9.74434,3.45669 13.5,6C 17.0357,9.70392 20.7024,13.2039 24.5,16.5 Z M 19.5,20.5 C 21.2959,21.7927 22.9625,23.2927 24.5,25C 22.0577,29.0524 21.891,33.2191 24,37.5C 28.4152,41.051 33.0819,41.3843 38,38.5C 42.7988,42.2321 41.9654,44.3988 35.5,45C 23.7317,45.6162 14.3983,41.1162 7.5,31.5C 10.9208,27.0739 14.9208,23.4072 19.5,20.5 Z M 27.5,29.5 C 30.0692,30.3956 32.0692,32.0623 33.5,34.5C 29.206,35.8863 27.206,34.2196 27.5,29.5 Z"/></g>
<g><path style="opacity:0.745" fill="#000000" d="M 50.5,42.5 C 49.8333,42.5 49.5,42.1667 49.5,41.5C 49.5858,40.5041 49.2524,39.6708 48.5,39C 51.5968,36.6094 53.7635,33.776 55,30.5C 47.4015,21.1179 37.5682,16.7845 25.5,17.5C 24.8333,17.5 24.5,17.1667 24.5,16.5C 24.5106,14.9826 25.1772,13.8159 26.5,13C 37.7598,11.7531 47.4264,15.0865 55.5,23C 63.5,28.6667 63.5,34.3333 55.5,40C 53.9221,41.0945 52.2554,41.9278 50.5,42.5 Z"/></g>
</svg>
